<?xml version="1.0" encoding="utf-8"?>
<!-- Generator: Adobe Illustrator 23.0.3, SVG Export Plug-In . SVG Version: 6.00 Build 0)  -->
<svg version="1.1" id="Layer_1" xmlns="http://www.w3.org/2000/svg" xmlns:xlink="http://www.w3.org/1999/xlink" x="0px" y="0px"
	 viewBox="0 0 455 455" style="enable-background:new 0 0 455 455;" xml:space="preserve">
<style type="text/css">
	.st0{fill:#010101;}
	.st1{fill:#F3F3F3;}
	.st2{fill:#989898;}
	.st3{fill:#414042;}
</style>
<rect width="455" height="455"/>
<rect x="37.81" y="37.81" class="st0" width="379.38" height="379.38"/>
<path class="st1" d="M130.3,373.4h-6.2v-37.22h31.02v6.2H130.3V373.4z"/>
<path class="st1" d="M192.34,342.31h-31.02v-6.2h37.22v37.22h-37.22v-18.56h6.2v12.36h24.81v-12.41h-31.02v-6.2h31.02V342.31z"/>
<path class="st1" d="M204.75,379.6h31.02v-6.2h-31.02v-37.22h6.2v31.02h24.81v-31.02h6.2v49.63h-37.22V379.6z"/>
<path class="st2" d="M248.17,328.5h24.81v6.37h-18.61v12.74h18.61v6.37h-18.61v31.83h-6.21V328.5z"/>
<path class="st2" d="M279.33,336.11h30.97v6.2h-24.76v24.81h24.81v-31.02h6.2v37.22h-37.22V336.11z"/>
<path class="st2" d="M328.82,373.4h-6.2v-37.22h31.02v6.2h-24.81V373.4z"/>
<g>
	<rect x="359.75" y="328.6" class="st2" width="6.36" height="44.8"/>
	<rect x="366.11" y="354.2" class="st2" width="12.84" height="6.36"/>
	<rect x="378.95" y="347.82" class="st2" width="6.36" height="6.36"/>
	<rect x="385.31" y="341.45" class="st2" width="6.36" height="6.36"/>
	<rect x="385.31" y="366.93" class="st2" width="6.36" height="6.36"/>
	<rect x="378.95" y="360.56" class="st2" width="6.36" height="6.36"/>
</g>
<g>
	<path class="st3" d="M10.5,10.5v434h434v-434H10.5z M417.19,417.19H37.81V37.81h379.38V417.19z"/>
</g>
</svg>
